<mxfile host="app.diagrams.net" modified="2023-11-22T06:27:08.009Z" agent="Mozilla/5.0 (Windows NT 10.0; Win64; x64) AppleWebKit/537.36 (KHTML, like Gecko) Chrome/119.0.0.0 Safari/537.36" etag="PzhZMzMeTkk_vgtLia5w" version="22.1.3" type="device">
  <diagram id="kgpKYQtTHZ0yAKxKKP6v" name="Page-1">
    <mxGraphModel dx="1095" dy="873" grid="1" gridSize="10" guides="1" tooltips="1" connect="1" arrows="1" fold="1" page="1" pageScale="1" pageWidth="850" pageHeight="1100" math="0" shadow="0">
      <root>
        <mxCell id="0" />
        <mxCell id="1" parent="0" />
        <mxCell id="NhK3ekOwg-1YRqnt7CMX-2" value="" style="rounded=0;whiteSpace=wrap;html=1;fontSize=16;rotation=90;" vertex="1" parent="1">
          <mxGeometry x="72.5" y="162.5" width="687.5" height="475" as="geometry" />
        </mxCell>
        <mxCell id="NhK3ekOwg-1YRqnt7CMX-3" value="Customer" style="shape=umlActor;verticalLabelPosition=bottom;verticalAlign=top;html=1;outlineConnect=0;fontSize=16;" vertex="1" parent="1">
          <mxGeometry x="40" y="360" width="70" height="105" as="geometry" />
        </mxCell>
        <mxCell id="NhK3ekOwg-1YRqnt7CMX-4" value="Input Account" style="ellipse;whiteSpace=wrap;html=1;fontSize=16;" vertex="1" parent="1">
          <mxGeometry x="270" y="60" width="340" height="90" as="geometry" />
        </mxCell>
        <mxCell id="NhK3ekOwg-1YRqnt7CMX-10" value="Search Account" style="ellipse;whiteSpace=wrap;html=1;fontSize=16;" vertex="1" parent="1">
          <mxGeometry x="267.5" y="260" width="340" height="90" as="geometry" />
        </mxCell>
        <mxCell id="NhK3ekOwg-1YRqnt7CMX-11" value="Deposit" style="ellipse;whiteSpace=wrap;html=1;fontSize=16;" vertex="1" parent="1">
          <mxGeometry x="267.5" y="490" width="340" height="90" as="geometry" />
        </mxCell>
        <mxCell id="NhK3ekOwg-1YRqnt7CMX-12" value="Withdraw" style="ellipse;whiteSpace=wrap;html=1;fontSize=16;" vertex="1" parent="1">
          <mxGeometry x="270" y="600" width="340" height="90" as="geometry" />
        </mxCell>
        <mxCell id="NhK3ekOwg-1YRqnt7CMX-14" value="number of customer" style="ellipse;whiteSpace=wrap;html=1;fontSize=16;" vertex="1" parent="1">
          <mxGeometry x="270" y="170" width="150" height="70" as="geometry" />
        </mxCell>
        <mxCell id="NhK3ekOwg-1YRqnt7CMX-16" value="Account no" style="ellipse;whiteSpace=wrap;html=1;fontSize=16;" vertex="1" parent="1">
          <mxGeometry x="267.5" y="390" width="150" height="70" as="geometry" />
        </mxCell>
        <mxCell id="NhK3ekOwg-1YRqnt7CMX-17" value="customer name" style="ellipse;whiteSpace=wrap;html=1;fontSize=16;" vertex="1" parent="1">
          <mxGeometry x="460" y="390" width="150" height="70" as="geometry" />
        </mxCell>
        <mxCell id="NhK3ekOwg-1YRqnt7CMX-18" style="edgeStyle=none;curved=1;rounded=0;orthogonalLoop=1;jettySize=auto;html=1;exitX=1;exitY=0.5;exitDx=0;exitDy=0;fontSize=12;startSize=8;endSize=8;" edge="1" parent="1" source="NhK3ekOwg-1YRqnt7CMX-2" target="NhK3ekOwg-1YRqnt7CMX-2">
          <mxGeometry relative="1" as="geometry" />
        </mxCell>
        <mxCell id="NhK3ekOwg-1YRqnt7CMX-19" value="" style="endArrow=classic;html=1;rounded=0;fontSize=12;startSize=8;endSize=8;curved=1;entryX=0.5;entryY=1;entryDx=0;entryDy=0;exitX=0.5;exitY=0;exitDx=0;exitDy=0;" edge="1" parent="1" source="NhK3ekOwg-1YRqnt7CMX-16" target="NhK3ekOwg-1YRqnt7CMX-10">
          <mxGeometry width="50" height="50" relative="1" as="geometry">
            <mxPoint x="390" y="460" as="sourcePoint" />
            <mxPoint x="440" y="410" as="targetPoint" />
          </mxGeometry>
        </mxCell>
        <mxCell id="NhK3ekOwg-1YRqnt7CMX-20" value="" style="endArrow=classic;html=1;rounded=0;fontSize=12;startSize=8;endSize=8;curved=1;exitX=0.5;exitY=0;exitDx=0;exitDy=0;" edge="1" parent="1" source="NhK3ekOwg-1YRqnt7CMX-17">
          <mxGeometry width="50" height="50" relative="1" as="geometry">
            <mxPoint x="390" y="460" as="sourcePoint" />
            <mxPoint x="440" y="350" as="targetPoint" />
          </mxGeometry>
        </mxCell>
        <mxCell id="NhK3ekOwg-1YRqnt7CMX-22" value="" style="endArrow=classic;html=1;rounded=0;fontSize=12;startSize=8;endSize=8;curved=1;entryX=0.5;entryY=1;entryDx=0;entryDy=0;exitX=0.5;exitY=0;exitDx=0;exitDy=0;" edge="1" parent="1" source="NhK3ekOwg-1YRqnt7CMX-14" target="NhK3ekOwg-1YRqnt7CMX-4">
          <mxGeometry width="50" height="50" relative="1" as="geometry">
            <mxPoint x="375" y="180" as="sourcePoint" />
            <mxPoint x="425" y="130" as="targetPoint" />
          </mxGeometry>
        </mxCell>
        <mxCell id="NhK3ekOwg-1YRqnt7CMX-23" value="server" style="shape=umlActor;verticalLabelPosition=bottom;verticalAlign=top;html=1;outlineConnect=0;fontSize=16;" vertex="1" parent="1">
          <mxGeometry x="760" y="350" width="60" height="100" as="geometry" />
        </mxCell>
        <mxCell id="NhK3ekOwg-1YRqnt7CMX-24" value="" style="endArrow=none;html=1;rounded=0;fontSize=12;startSize=8;endSize=8;curved=1;exitX=1;exitY=0.3333333333333333;exitDx=0;exitDy=0;exitPerimeter=0;entryX=0;entryY=0.5;entryDx=0;entryDy=0;" edge="1" parent="1" source="NhK3ekOwg-1YRqnt7CMX-3" target="NhK3ekOwg-1YRqnt7CMX-4">
          <mxGeometry width="50" height="50" relative="1" as="geometry">
            <mxPoint x="120" y="410" as="sourcePoint" />
            <mxPoint x="170" y="360" as="targetPoint" />
          </mxGeometry>
        </mxCell>
        <mxCell id="NhK3ekOwg-1YRqnt7CMX-25" value="" style="endArrow=none;html=1;rounded=0;fontSize=12;startSize=8;endSize=8;curved=1;entryX=0;entryY=0.5;entryDx=0;entryDy=0;exitX=1;exitY=0.3333333333333333;exitDx=0;exitDy=0;exitPerimeter=0;" edge="1" parent="1" source="NhK3ekOwg-1YRqnt7CMX-3" target="NhK3ekOwg-1YRqnt7CMX-10">
          <mxGeometry width="50" height="50" relative="1" as="geometry">
            <mxPoint x="110" y="390" as="sourcePoint" />
            <mxPoint x="280" y="115" as="targetPoint" />
          </mxGeometry>
        </mxCell>
        <mxCell id="NhK3ekOwg-1YRqnt7CMX-27" value="" style="endArrow=none;html=1;rounded=0;fontSize=12;startSize=8;endSize=8;curved=1;entryX=0;entryY=0.5;entryDx=0;entryDy=0;exitX=1;exitY=0.3333333333333333;exitDx=0;exitDy=0;exitPerimeter=0;" edge="1" parent="1" source="NhK3ekOwg-1YRqnt7CMX-3" target="NhK3ekOwg-1YRqnt7CMX-11">
          <mxGeometry width="50" height="50" relative="1" as="geometry">
            <mxPoint x="120" y="400" as="sourcePoint" />
            <mxPoint x="278" y="315" as="targetPoint" />
          </mxGeometry>
        </mxCell>
        <mxCell id="NhK3ekOwg-1YRqnt7CMX-29" value="" style="endArrow=none;html=1;rounded=0;fontSize=12;startSize=8;endSize=8;curved=1;entryX=0;entryY=0.5;entryDx=0;entryDy=0;exitX=1;exitY=0.3333333333333333;exitDx=0;exitDy=0;exitPerimeter=0;" edge="1" parent="1" source="NhK3ekOwg-1YRqnt7CMX-3" target="NhK3ekOwg-1YRqnt7CMX-12">
          <mxGeometry width="50" height="50" relative="1" as="geometry">
            <mxPoint x="98.75" y="421.25" as="sourcePoint" />
            <mxPoint x="256.75" y="561.25" as="targetPoint" />
          </mxGeometry>
        </mxCell>
        <mxCell id="NhK3ekOwg-1YRqnt7CMX-31" value="" style="endArrow=none;html=1;rounded=0;fontSize=12;startSize=8;endSize=8;curved=1;exitX=0;exitY=0.3333333333333333;exitDx=0;exitDy=0;exitPerimeter=0;entryX=1;entryY=0.5;entryDx=0;entryDy=0;" edge="1" parent="1" source="NhK3ekOwg-1YRqnt7CMX-23" target="NhK3ekOwg-1YRqnt7CMX-4">
          <mxGeometry width="50" height="50" relative="1" as="geometry">
            <mxPoint x="710" y="420" as="sourcePoint" />
            <mxPoint x="870" y="130" as="targetPoint" />
          </mxGeometry>
        </mxCell>
        <mxCell id="NhK3ekOwg-1YRqnt7CMX-32" value="" style="endArrow=none;html=1;rounded=0;fontSize=12;startSize=8;endSize=8;curved=1;exitX=0;exitY=0.3333333333333333;exitDx=0;exitDy=0;exitPerimeter=0;entryX=1;entryY=0.5;entryDx=0;entryDy=0;" edge="1" parent="1" source="NhK3ekOwg-1YRqnt7CMX-23" target="NhK3ekOwg-1YRqnt7CMX-10">
          <mxGeometry width="50" height="50" relative="1" as="geometry">
            <mxPoint x="770" y="393" as="sourcePoint" />
            <mxPoint x="620" y="115" as="targetPoint" />
          </mxGeometry>
        </mxCell>
        <mxCell id="NhK3ekOwg-1YRqnt7CMX-33" value="" style="endArrow=none;html=1;rounded=0;fontSize=12;startSize=8;endSize=8;curved=1;exitX=0;exitY=0.3333333333333333;exitDx=0;exitDy=0;exitPerimeter=0;entryX=1;entryY=0.5;entryDx=0;entryDy=0;" edge="1" parent="1" source="NhK3ekOwg-1YRqnt7CMX-23" target="NhK3ekOwg-1YRqnt7CMX-11">
          <mxGeometry width="50" height="50" relative="1" as="geometry">
            <mxPoint x="780" y="403" as="sourcePoint" />
            <mxPoint x="630" y="125" as="targetPoint" />
          </mxGeometry>
        </mxCell>
        <mxCell id="NhK3ekOwg-1YRqnt7CMX-34" value="" style="endArrow=none;html=1;rounded=0;fontSize=12;startSize=8;endSize=8;curved=1;exitX=0;exitY=0.3333333333333333;exitDx=0;exitDy=0;exitPerimeter=0;entryX=1;entryY=0.5;entryDx=0;entryDy=0;" edge="1" parent="1" source="NhK3ekOwg-1YRqnt7CMX-23" target="NhK3ekOwg-1YRqnt7CMX-12">
          <mxGeometry width="50" height="50" relative="1" as="geometry">
            <mxPoint x="770" y="393" as="sourcePoint" />
            <mxPoint x="618" y="545" as="targetPoint" />
          </mxGeometry>
        </mxCell>
      </root>
    </mxGraphModel>
  </diagram>
</mxfile>
